<svg width="62" height="60" viewBox="0 0 62 60" fill="none" xmlns="http://www.w3.org/2000/svg">
<rect y="1" width="59" height="59" rx="29.5" fill="#E20010"/>
<g clip-path="url(#clip0_2201_27469)">
<path d="M33.5509 14.5273C34.6179 14.5422 35.6359 14.7446 36.5866 15.2282C37.4247 15.6572 38.1081 16.2571 38.5746 17.084C38.8777 17.6299 39.0766 18.2274 39.161 18.846C39.3344 20.0336 39.159 21.1825 38.7674 22.306C38.5372 22.9649 38.2187 23.5829 37.8738 24.1899C37.171 25.4255 36.2681 26.4964 35.2178 27.4457C33.8704 28.6649 32.3928 29.732 30.8118 30.6278C30.1993 30.9737 29.5642 31.2641 28.8811 31.4418C28.4626 31.5548 28.0306 31.6095 27.5971 31.6042C27.0266 31.5926 26.5801 31.3328 26.2329 30.895C25.9123 30.5021 25.7471 30.0052 25.7687 29.4986C25.7725 29.3576 25.7928 29.2176 25.8293 29.0814C26.0359 28.3474 26.3167 27.6443 26.7364 27.0031C27.0572 26.5135 27.4395 26.0786 27.9395 25.7675C28.4956 25.4213 29.1 25.2733 29.7538 25.4161C29.9581 25.4641 30.1505 25.5535 30.3189 25.6789C30.7492 25.9864 30.7266 26.469 30.52 26.7772C30.343 27.045 30.1451 27.2984 29.9282 27.535C29.5607 27.9309 29.1703 28.3052 28.7892 28.6881C28.452 29.0269 28.1352 29.3825 27.8782 29.7877C27.7451 29.9979 27.6223 30.2123 27.5855 30.4647C27.5391 30.7812 27.7035 30.9969 28.023 31.0266C28.1883 31.04 28.3546 31.0233 28.5139 30.9772C29.0049 30.8415 29.4607 30.6226 29.9085 30.3867C30.599 30.0214 31.2363 29.575 31.8575 29.104C32.6105 28.5331 33.3426 27.9377 34.0173 27.2755C34.7859 26.5222 35.4709 25.7034 35.995 24.7585C36.378 24.0687 36.6601 23.3401 36.7855 22.5587C36.8964 21.8705 36.8345 21.1999 36.5157 20.5681C36.3621 20.2558 36.122 19.9943 35.8239 19.8148C35.6862 19.7319 35.5344 19.6753 35.3761 19.6478C34.8 19.5456 34.2427 19.6294 33.695 19.8122C33.1241 20.003 32.5944 20.2815 32.0796 20.5858C30.9623 21.2486 29.8437 21.9111 28.7789 22.6574C28.2451 23.0313 27.7277 23.4291 27.2045 23.8179C26.7319 24.1692 26.2626 24.5248 25.7461 24.812C25.327 25.0507 24.8734 25.2228 24.4015 25.3223C23.8168 25.441 23.2778 25.3307 22.7826 25.0129C22.2688 24.6831 21.909 24.2305 21.7511 23.6315C21.6505 23.2534 21.6901 22.8785 21.7769 22.5052C21.9036 21.9572 22.144 21.4607 22.4438 20.9901C23.1853 19.8276 24.1175 18.8415 25.2017 17.9986C26.8083 16.7494 28.5762 15.7875 30.4884 15.0915C31.4702 14.7324 32.5056 14.5416 33.5509 14.5273V14.5273Z" fill="white"/>
<path d="M20.3328 41.1036C20.3273 40.7386 20.2857 40.4105 20.0749 40.1258C19.9722 39.9883 19.8301 39.8853 19.6674 39.8305C19.2483 39.6803 18.8215 39.6981 18.4054 39.8267C18.0717 39.9298 17.75 40.0704 17.4234 40.1958C17.359 40.2196 17.3003 40.2503 17.2223 40.2851C17.0685 39.9037 16.9173 39.5337 16.7591 39.1468C16.9883 39.0382 17.2042 38.9273 17.427 38.8322C17.9402 38.6127 18.4724 38.4621 19.032 38.4283C19.5917 38.3944 20.1439 38.4241 20.6532 38.6955C21.2293 39.0005 21.6451 39.4408 21.8192 40.0817C21.8443 40.1656 21.8594 40.2521 21.864 40.3396C21.8863 41.1716 21.9162 42.0036 21.9198 42.8356C21.922 43.4043 21.8846 43.9732 21.8679 44.5422C21.8649 44.6202 21.8324 44.6942 21.777 44.7492C21.3789 45.1876 20.8918 45.4906 20.3399 45.694C19.7481 45.91 19.1178 46.0005 18.4892 45.96C17.9089 45.9277 17.408 45.6902 16.9844 45.2959C16.5608 44.9017 16.2649 44.4255 16.1823 43.842C16.0695 43.0429 16.3 42.3495 16.8745 41.7789C17.2439 41.4121 17.6991 41.2225 18.2119 41.1555C18.7793 41.0816 19.3486 41.1013 19.9179 41.1029L20.3328 41.1036ZM20.2583 42.4027C20.2249 42.3961 20.1911 42.3915 20.1571 42.3888C19.9637 42.385 19.768 42.3782 19.5736 42.3811C19.3405 42.3846 19.1065 42.3856 18.8747 42.4075C18.6352 42.4304 18.4028 42.5004 18.2171 42.6603C17.9089 42.9259 17.8174 43.2727 17.8925 43.6638C17.986 44.1473 18.2561 44.4852 18.7377 44.6289C18.9861 44.7032 19.249 44.7143 19.5027 44.6612C19.7385 44.618 19.9585 44.5125 20.1397 44.3556C20.1704 44.3318 20.1956 44.3017 20.2137 44.2673C20.2317 44.2329 20.2422 44.1951 20.2445 44.1563C20.2519 43.9865 20.2738 43.8169 20.2751 43.647C20.2777 43.2579 20.2719 42.8688 20.2686 42.4797C20.2667 42.4539 20.2633 42.4281 20.2583 42.4027V42.4027Z" fill="white"/>
<path d="M39.722 42.3711C38.339 42.3711 36.9819 42.3414 35.6057 42.3775C35.6128 42.4742 35.617 42.5658 35.6257 42.6551C35.6611 43.0203 35.7398 43.3752 35.8942 43.7102C36.0143 43.9834 36.2006 44.2222 36.4364 44.4052C36.8104 44.6892 37.2372 44.7356 37.6849 44.6779C38.055 44.6302 38.3996 44.4948 38.7433 44.3584C38.9009 44.2962 39.0572 44.2295 39.2268 44.1602C39.388 44.4974 39.5459 44.8288 39.7103 45.1698C39.68 45.1917 39.6517 45.2162 39.6201 45.2343C38.9496 45.6321 38.2294 45.8884 37.4515 45.9561C36.7423 46.0176 36.0654 45.9013 35.4529 45.5089C35.0358 45.2417 34.7437 44.8642 34.4993 44.4419C34.1984 43.9165 34.0162 43.3316 33.9655 42.7282C33.8632 41.6281 34.0968 40.6039 34.6663 39.6555C35.0635 38.9962 35.6563 38.6381 36.3984 38.5146C37.0805 38.3947 37.7831 38.5116 38.3896 38.846C38.7294 39.0301 38.966 39.3199 39.161 39.6448C39.4189 40.0732 39.5546 40.5455 39.6198 41.0349C39.6726 41.4294 39.6894 41.8288 39.721 42.2276C39.7249 42.2685 39.722 42.3111 39.722 42.3711ZM38.0457 41.1187C37.9654 40.7509 37.9106 40.375 37.6698 40.0633C37.549 39.9083 37.3794 39.7988 37.1885 39.7525C36.6808 39.6181 36.1705 39.8521 35.9522 40.3328C35.8742 40.5039 35.8284 40.6899 35.7717 40.8701C35.7462 40.9517 35.7298 41.0365 35.7095 41.1187C35.8459 41.1548 37.9061 41.1564 38.0463 41.1196L38.0457 41.1187Z" fill="white"/>
<path d="M30.6497 36.7524L32.2999 36.4971V38.5238C32.6661 38.5457 33.0149 38.5218 33.3656 38.5596V39.8081C33.011 39.8139 32.6639 39.8032 32.3018 39.8252C32.3018 39.8954 32.3018 39.948 32.3018 40.0005C32.2988 41.2023 32.2962 42.4042 32.2941 43.6062C32.2941 43.7954 32.3093 43.9849 32.3263 44.1735C32.3534 44.4636 32.5143 44.6477 32.7954 44.7183C32.9504 44.7576 33.1097 44.7799 33.267 44.8099L33.425 44.8421V45.9017C33.4072 45.9105 33.3883 45.9168 33.3689 45.9204C32.9005 45.9414 32.434 45.9291 31.9811 45.7915C31.5388 45.658 31.17 45.4162 30.9199 45.0178C30.7777 44.7921 30.7055 44.5384 30.6742 44.2764C30.6553 44.1122 30.6461 43.9471 30.6465 43.7818C30.6465 41.4995 30.6478 39.2174 30.6504 36.9355L30.6497 36.7524Z" fill="white"/>
<path d="M40.6291 36.7541L42.2248 36.4775V36.6977C42.2248 38.7705 42.2257 40.8433 42.2274 42.9161C42.2274 43.2955 42.2306 43.675 42.2335 44.0547C42.2361 44.4293 42.3728 44.6201 42.7306 44.7317C42.8522 44.7653 42.9757 44.7918 43.1003 44.811C43.1764 44.8251 43.2535 44.8319 43.346 44.8432V45.9257C43.3374 45.9328 43.3272 45.9378 43.3163 45.9402C42.8631 45.9586 42.4118 45.9512 41.9711 45.8222C41.7041 45.7454 41.4555 45.6151 41.2403 45.4392C40.8396 45.1114 40.6765 44.672 40.6346 44.1766C40.6223 44.0315 40.6239 43.8848 40.6243 43.7391C40.6243 41.4716 40.6259 39.2043 40.6291 36.9372V36.7541Z" fill="white"/>
<path d="M27.4414 45.8296H25.8296C25.8277 45.7623 25.8245 45.7007 25.8241 45.6398C25.8224 44.6714 25.821 43.703 25.8199 42.7346C25.818 41.961 25.8132 41.1873 25.8135 40.4136C25.814 40.2733 25.8248 40.1333 25.8457 39.9945C25.8696 39.8363 25.9524 39.7044 26.0675 39.5932C26.7006 38.9768 27.4592 38.6074 28.3241 38.4482C28.8661 38.3488 29.4216 38.348 29.9639 38.4459C29.9926 38.4511 30.0213 38.4575 30.0493 38.4646C30.0632 38.4682 30.0764 38.4749 30.1032 38.4852C29.9201 38.9507 29.697 39.3956 29.4868 39.8353C29.2357 39.8353 28.9978 39.8279 28.7605 39.8369C28.3508 39.8505 27.9486 39.9507 27.5804 40.1309C27.4759 40.1822 27.4369 40.246 27.4372 40.3662C27.4418 42.1285 27.4428 43.8907 27.4405 45.653L27.4414 45.8296Z" fill="white"/>
<path d="M24.6407 38.5918C24.6578 41.0069 24.6391 43.4079 24.6546 45.8237H23.0773C23.0734 45.7654 23.0657 45.7044 23.0657 45.6435C23.0657 44.1252 23.0657 42.6066 23.0657 41.0879C23.0657 40.3919 23.0715 39.6959 23.0744 38.9999C23.0744 38.947 23.0744 38.8942 23.0744 38.8278L24.6407 38.5918Z" fill="white"/>
<path d="M23.7866 37.8811C23.0164 37.8792 22.5342 37.1126 22.8536 36.3889C23.05 35.945 23.3872 35.7764 23.8736 35.7793C24.5254 35.7848 25.0086 36.4331 24.8533 37.0665C24.7292 37.5726 24.323 37.8824 23.7866 37.8811Z" fill="white"/>
</g>
<rect x="37.333" width="24" height="24" rx="12" fill="#00C707"/>
<path opacity="0.4" d="M55.9529 12.5735C55.9396 12.7002 55.9196 12.8202 55.8863 12.9402C55.1929 12.3535 54.2929 12.0002 53.3129 12.0002C51.1063 12.0002 49.3129 13.7935 49.3129 16.0002C49.3129 16.9802 49.6663 17.8802 50.2529 18.5735C50.1329 18.6068 50.0129 18.6268 49.8863 18.6402C49.3196 18.6935 48.7396 18.6668 48.1396 18.5668C45.3996 18.1002 43.1929 15.8802 42.7396 13.1335C41.9863 8.56684 45.8796 4.67351 50.4463 5.42684C53.1929 5.88018 55.4129 8.08684 55.8796 10.8268C55.9796 11.4268 56.0063 12.0068 55.9529 12.5735Z" stroke="white" stroke-width="1.5" stroke-linecap="round" stroke-linejoin="round"/>
<path d="M55.8863 12.94C55.793 13.2667 55.6197 13.56 55.373 13.8067L51.1197 18.06C50.873 18.3067 50.5797 18.48 50.253 18.5733C49.6663 17.88 49.313 16.98 49.313 16C49.313 13.7933 51.1063 12 53.313 12C54.293 12 55.193 12.3533 55.8863 12.94Z" stroke="white" stroke-width="1.5" stroke-linecap="round" stroke-linejoin="round"/>
<defs>
<clipPath id="clip0_2201_27469">
<rect width="32.2364" height="32.2364" fill="white" transform="translate(13.6321 14.1318)"/>
</clipPath>
</defs>
</svg>
