<svg width="48" height="48" viewBox="0 0 48 48" fill="none" xmlns="http://www.w3.org/2000/svg">
<rect width="48" height="48" rx="24" fill="#EFF9EB"/>
<path opacity="0.4" d="M26.13 23.3401C26.52 21.7001 25.09 20.27 23.45 20.66C22.68 20.85 22.05 21.4801 21.86 22.2501C21.47 23.8901 22.9 25.32 24.54 24.93C25.32 24.74 25.95 24.1101 26.13 23.3401Z" stroke="#00C707" stroke-width="1.5" stroke-linecap="round" stroke-linejoin="round"/>
<path d="M30.0099 29.19C31.7199 27.59 32.7899 25.32 32.7899 22.79C32.7899 17.93 28.85 14 24 14C19.15 14 15.21 17.94 15.21 22.79C15.21 25.33 16.29 27.62 18.02 29.22" stroke="#00C707" stroke-width="1.5" stroke-linecap="round" stroke-linejoin="round"/>
<path opacity="0.4" d="M20 26.5498C19.08 25.5698 18.51 24.2498 18.51 22.7898C18.51 19.7598 20.97 17.2998 24 17.2998C27.03 17.2998 29.49 19.7598 29.49 22.7898C29.49 24.2498 28.92 25.5598 28 26.5498" stroke="#00C707" stroke-width="1.5" stroke-linecap="round" stroke-linejoin="round"/>
<path opacity="0.4" d="M22.3 28.6598L20.86 30.4498C19.72 31.8798 20.73 33.9898 22.56 33.9898H25.43C27.26 33.9898 28.28 31.8698 27.13 30.4498L25.69 28.6598C24.83 27.5698 23.17 27.5698 22.3 28.6598Z" stroke="#00C707" stroke-width="1.5" stroke-linecap="round" stroke-linejoin="round"/>
</svg>
