<svg width="62" height="60" viewBox="0 0 62 60" fill="none" xmlns="http://www.w3.org/2000/svg">
<g clip-path="url(#clip0_2201_27451)">
<rect y="1" width="59" height="59" rx="29.5" fill="#162D4C"/>
<path d="M60.4404 -0.44043H-1.44238V61.4405H60.4404V-0.44043Z" fill="#FFC325"/>
<path d="M8.18701 30.4994C8.18701 25.908 17.7292 22.1855 29.5 22.1855C41.2708 22.1855 50.8129 25.9089 50.8129 30.4999C50.8129 35.0909 41.2712 38.8124 29.5 38.8124C17.7287 38.8124 8.18701 35.0904 8.18701 30.4994Z" fill="#006891"/>
<path fill-rule="evenodd" clip-rule="evenodd" d="M28.2622 34.7048L28.5762 33.5312H31.1207L30.8062 34.7048H28.2622Z" fill="#EE4034"/>
<path fill-rule="evenodd" clip-rule="evenodd" d="M28.6644 33.2016L29.9514 28.4007H27.6384L28.2059 26.2842H35.3759L34.8088 28.4007H32.4959L31.2093 33.2002L28.6644 33.2016Z" fill="#FFC325"/>
<path fill-rule="evenodd" clip-rule="evenodd" d="M15.9976 34.5416L18.2096 26.2842H21.7011V31.1407H21.7239L24.0925 26.2842H27.6392L25.4271 34.5416H23.1218L24.5398 29.2449H24.5169L21.7011 34.5416H19.8551V29.2449H19.8174L18.3994 34.5416H15.9976Z" fill="white"/>
<path fill-rule="evenodd" clip-rule="evenodd" d="M33.7324 34.5416L35.9431 26.2842H38.4418L39.5691 30.7024H39.5911L40.7745 26.2842H43.0844L40.8732 34.5416H38.4961L37.2719 30.0318H37.2499L36.0423 34.5416H33.7324Z" fill="white"/>
</g>
<rect x="37.5" width="24" height="24" rx="12" fill="#00C707"/>
<path opacity="0.4" d="M56.1199 12.5735C56.1066 12.7002 56.0866 12.8202 56.0532 12.9402C55.3599 12.3535 54.4599 12.0002 53.4799 12.0002C51.2732 12.0002 49.4799 13.7935 49.4799 16.0002C49.4799 16.9802 49.8332 17.8802 50.4199 18.5735C50.2999 18.6068 50.1799 18.6268 50.0532 18.6402C49.4866 18.6935 48.9066 18.6668 48.3066 18.5668C45.5666 18.1002 43.3599 15.8802 42.9066 13.1335C42.1532 8.56684 46.0466 4.67351 50.6132 5.42684C53.3599 5.88018 55.5799 8.08684 56.0466 10.8268C56.1466 11.4268 56.1732 12.0068 56.1199 12.5735Z" stroke="white" stroke-width="1.5" stroke-linecap="round" stroke-linejoin="round"/>
<path d="M56.0533 12.94C55.96 13.2667 55.7866 13.56 55.54 13.8067L51.2866 18.06C51.04 18.3067 50.7466 18.48 50.42 18.5733C49.8333 17.88 49.48 16.98 49.48 16C49.48 13.7933 51.2733 12 53.48 12C54.46 12 55.36 12.3533 56.0533 12.94Z" stroke="white" stroke-width="1.5" stroke-linecap="round" stroke-linejoin="round"/>
<defs>
<clipPath id="clip0_2201_27451">
<rect y="1" width="59" height="59" rx="29.5" fill="white"/>
</clipPath>
</defs>
</svg>
