<svg width="48" height="48" viewBox="0 0 48 48" fill="none" xmlns="http://www.w3.org/2000/svg">
<rect width="48" height="48" rx="24" fill="#EFF9EB"/>
<path d="M19.26 14H28.73C29.38 14 29.96 14.02 30.48 14.09C33.25 14.4 34 15.7 34 19.26V25.58C34 29.14 33.25 30.44 30.48 30.75C29.96 30.82 29.39 30.84 28.73 30.84H19.26C18.61 30.84 18.03 30.82 17.51 30.75C14.74 30.44 13.99 29.14 13.99 25.58V19.26C13.99 15.7 14.74 14.4 17.51 14.09C18.03 14.02 18.61 14 19.26 14Z" stroke="#00C707" stroke-width="1.5" stroke-linecap="round" stroke-linejoin="round"/>
<path opacity="0.4" d="M25.5801 20.3198H29.2601" stroke="#00C707" stroke-width="1.5" stroke-linecap="round" stroke-linejoin="round"/>
<path opacity="0.4" d="M18.74 26.1099H18.76H29.27" stroke="#00C707" stroke-width="1.5" stroke-linecap="round" stroke-linejoin="round"/>
<path opacity="0.4" d="M19 34H29" stroke="#00C707" stroke-width="1.5" stroke-linecap="round" stroke-linejoin="round"/>
<path opacity="0.4" d="M19.1947 20.2998H19.2037" stroke="#00C707" stroke-width="2" stroke-linecap="round" stroke-linejoin="round"/>
<path opacity="0.4" d="M22.4945 20.2998H22.5035" stroke="#00C707" stroke-width="2" stroke-linecap="round" stroke-linejoin="round"/>
</svg>
